<svg xmlns="http://www.w3.org/2000/svg" viewBox="0 0 64 64" role="img" aria-label="Bandejinha logo">
  <rect width="64" height="64" rx="14" fill="#e9f4ff"/>

  <!-- Pixel-art waiter (mid/upper body) -->
  <rect x="18" y="8" width="4" height="4" fill="#0d3b66"/>
  <rect x="22" y="8" width="4" height="4" fill="#0d3b66"/>
  <rect x="26" y="8" width="4" height="4" fill="#0d3b66"/>
  <rect x="30" y="8" width="4" height="4" fill="#0d3b66"/>
  <rect x="34" y="8" width="4" height="4" fill="#0d3b66"/>
  <rect x="38" y="8" width="4" height="4" fill="#0d3b66"/>

  <rect x="18" y="12" width="4" height="4" fill="#0d3b66"/>
  <rect x="22" y="12" width="4" height="4" fill="#f4c7a1"/>
  <rect x="26" y="12" width="4" height="4" fill="#f4c7a1"/>
  <rect x="30" y="12" width="4" height="4" fill="#f4c7a1"/>
  <rect x="34" y="12" width="4" height="4" fill="#f4c7a1"/>
  <rect x="38" y="12" width="4" height="4" fill="#0d3b66"/>

  <rect x="18" y="16" width="4" height="4" fill="#0d3b66"/>
  <rect x="22" y="16" width="4" height="4" fill="#f4c7a1"/>
  <rect x="26" y="16" width="4" height="4" fill="#1f2937"/>
  <rect x="30" y="16" width="4" height="4" fill="#f4c7a1"/>
  <rect x="34" y="16" width="4" height="4" fill="#1f2937"/>
  <rect x="38" y="16" width="4" height="4" fill="#f4c7a1"/>
  <rect x="42" y="16" width="4" height="4" fill="#0d3b66"/>

  <rect x="22" y="20" width="4" height="4" fill="#f4c7a1"/>
  <rect x="26" y="20" width="4" height="4" fill="#f4c7a1"/>
  <rect x="30" y="20" width="4" height="4" fill="#8b2f2f"/>
  <rect x="34" y="20" width="4" height="4" fill="#f4c7a1"/>
  <rect x="38" y="20" width="4" height="4" fill="#f4c7a1"/>

  <rect x="22" y="24" width="4" height="4" fill="#ffffff"/>
  <rect x="26" y="24" width="4" height="4" fill="#ffffff"/>
  <rect x="30" y="24" width="4" height="4" fill="#0d3b66"/>
  <rect x="34" y="24" width="4" height="4" fill="#ffffff"/>
  <rect x="38" y="24" width="4" height="4" fill="#ffffff"/>

  <rect x="20" y="28" width="4" height="4" fill="#ffffff"/>
  <rect x="24" y="28" width="4" height="4" fill="#ffffff"/>
  <rect x="28" y="28" width="4" height="4" fill="#0d3b66"/>
  <rect x="32" y="28" width="4" height="4" fill="#0d3b66"/>
  <rect x="36" y="28" width="4" height="4" fill="#ffffff"/>
  <rect x="40" y="28" width="4" height="4" fill="#ffffff"/>

  <rect x="20" y="32" width="4" height="4" fill="#ffffff"/>
  <rect x="24" y="32" width="4" height="4" fill="#ffffff"/>
  <rect x="28" y="32" width="4" height="4" fill="#0d3b66"/>
  <rect x="32" y="32" width="4" height="4" fill="#0d3b66"/>
  <rect x="36" y="32" width="4" height="4" fill="#ffffff"/>
  <rect x="40" y="32" width="4" height="4" fill="#ffffff"/>

  <rect x="16" y="28" width="4" height="4" fill="#f4c7a1"/>
  <rect x="12" y="28" width="4" height="4" fill="#f4c7a1"/>
  <rect x="44" y="24" width="4" height="4" fill="#f4c7a1"/>
  <rect x="48" y="24" width="4" height="4" fill="#f4c7a1"/>

  <!-- Tray -->
  <rect x="46" y="20" width="12" height="2" fill="#6b7280"/>
  <rect x="52" y="18" width="2" height="2" fill="#6b7280"/>

  <!-- Beer on tray -->
  <rect x="50" y="10" width="6" height="8" fill="#f59e0b"/>
  <rect x="50" y="8" width="6" height="2" fill="#fde68a"/>
  <rect x="56" y="11" width="2" height="6" fill="#f8fafc"/>
  <rect x="58" y="12" width="2" height="4" fill="#f8fafc"/>

  <!-- Brazilian accent stripe -->
  <rect x="10" y="44" width="44" height="4" fill="#16a34a"/>
  <rect x="54" y="44" width="4" height="4" fill="#facc15"/>
</svg>
